/* XPM */
static char *f575bfa3cb9f4ed59e342b67f899e038yt2HqIAyVTXWulgp[] = {
/* columns rows colors chars-per-pixel */
"50 50 34 1 ",
"  c #62AF3F",
". c #65B33E",
"X c #6BBB3F",
"o c #65AD43",
"O c #6CAE45",
"+ c #73AE4C",
"@ c #7BAD4D",
"# c #66B241",
"$ c #6CB544",
"% c #6EB943",
"& c #6EB449",
"* c #6FB848",
"= c #71B546",
"- c #78B447",
"; c #72BB45",
": c #79BC47",
"> c #73B44A",
", c #7AB54C",
"< c #75BA4A",
"1 c #7ABC4C",
"2 c #76B451",
"3 c #7CB551",
"4 c #77BB50",
"5 c #7CBB51",
"6 c #74C044",
"7 c #79C246",
"8 c #76C048",
"9 c #7AC14A",
"0 c #7CC151",
"q c #81B64D",
"w c #81BB4E",
"e c #83B453",
"r c #82BC51",
"t c #83C052",
/* pixels */
"=;$<;#;;%%*O1<#%%;>*%*;$$;%%;O,<*#;%;<;#<%#;6*%%Ow",
";%;*$&,>>;>,,+><867%;=&$>->=;<,,><=6;8*;=*>,=>;<,,",
"1*$#;#=1<:>,11<<*;7<*#;.&:1:>>,1<<<%7<<#%;#=11;+,q",
"><*<=$6;==>+,;>=X*4<;>;&;X==>+@1=**.<<<*==$;;=>&@,",
"<;<>*1;=<&*,>**$;#>;;1>*9*<>&;,>;$;;&<6<<$1==<**:,",
";*<<=<>=1r:;:$%%=#%;&<<<>>;11;:-#%*#o;*><><+=9w<:q",
"%<>,3,>*,r>=;*=;*%X<><,3,==t,=:;*;%*#;>>,3,>=1r*=:",
">>,<3,=>:;;X$;9=;7;>+,,5>=,;;X==8<;77=+,<51>><<6X-",
",>+=<==*#$11>#1<;<,>+><<;>*.>1:$*0*;<1&+<<=<>.*<q-",
"*>>+6*8=.;=>>&&9;*#*<+=;;<#$<=,>&<9*&$>>>6;;=#=*--",
"<<14>**$449r333504<>14<>*&=4w0ee330<><>95>*&*<50re",
"<#%8$*$.9,=t3>1;%%;*$6**; *1*1q><1%X*;%%;$;##9,%qq",
"<<*#8;;;<<*=;=;;66%<=%*<;;=<=$>>%;;;8;<%#;<;;*=*=,",
"<<;#<9=8*#%=1>*8%X7<;*#9<;8#%%,1*=6%6<<=$<1<8%#%=w",
";<%$$*9%.*=<,>1<=;;<;$&$9;##<=q>>11;;;<;$$*9%.**qw",
"16$*,><*;=#<q1<+,118#$<1<<%;$*q1<>+>91;#*1<<*%>#;q",
"1=<<1r;=,>*11<;=><9<<<131<<,&<51<%<<:1;<11r<<,&*1q",
"=&932<<=,><1,<$:<>1&;13,<$<,*>,1*=<*1>*9,2<>>1><1q",
"*=$<=.;;%%#O5<#8%;>***=X#;%6* ,1%%;%<*=*=$#*6X;#Or",
";%*<==>;<%<+1>=#;;<%%<<*><=%=>,1>#%6=<%%<*=<=*%>+q",
"7$*#*&>,<=>11>1<=69;*%#%+1,;=,,,><<87<$;#%&>,>;>,q",
"<<%=;#;;<<>+q;><.;<<=#;*#;<;<+,1<>*#8<<$=;#;1;<>@q",
",<<<&=6%<$>++;**6#<<;<<&7%;>*>@=;*%%><;<<*>6%=**@q",
";*<<*1<=<,=:1=#%;#>;=1>=1=:,;=1=%#**#<=<1*1>=1<=:-",
";<&<,,>&1r1;:=*%&#X;><<3,*<tw=:;$%%$#%>=<,,>*1t:::",
"*>,,5,=><1*X==;=;;;=,>3r+*>1<%==*<*86%>>,5,=>11%X=",
"1++;1;>>$*9;==9=::1>+><<;+=$;:==94*89,++<,;>>**;:-",
"&=+==;=*.$>1=#<9%*&>&+8*;<..=::$o96%*=*+>=;=* *>q-",
"24429*><*95332>094*4434<*4><11333,004*4544<<<*44eq",
"<*91>>$#551te331<<4>*8>>*#>r30e3354<><>99&>#$551rq",
"*%X%*;*#=>*<,$<;X6%*%%=;;#$<=;1>;;%X%*%#%%<%#<=$,-",
"<>;#<9<8=;$&1*%6%;8<<%%9<<;$;#,1%;6*69<*#91%7=;%=q",
"81;$$<<=%#*<,>>9*%;;<*O*1;=#**1>>1;%;:;;*&<1;%#*<r",
"<;#$&>9%X**<,1>>,<;1;#**<;%%**q,<>,>1;8#$&=9#%**1q",
"9;*;w1<*=>#111=>,<9;;=:w<<%<o*11<$>,t:;*;11<*>&$:q",
"<>9131;>3><51<*;<1:=;1331*,2<1e1<*<>1;=1,311>3><qq",
"&><<*$*%;;#&,<#9==<*=1>$**;<;#,,#;8$<**;<*#*%;;*-q",
"=;$;=#;;;**Ow<#%X;<=*>;%#;%%*$,1$%%%<=;*<;$=;X;#Ow",
";%;*$*,>=;,,,,<=;;9%%;*#,>>=;,,,><*6;8%;*#>,>>;<,,",
"1>#%%$&11;>+1<<<*67<*.%$$1,;=>,1><<%71*##;#>:<<&,q",
"><<>==X;==>+,;=>X%,><*<*;6;==+q:<*;#>,<=1=*;;=;>@q",
"<;<<*1;;<*==,;*$;$&<<<>=9=;>&=@>*$6*&<;<>*1<%;&*--",
";*><=,+*1r<::*#%=#$;$<><>>;w:;:;#%%##%&=1<1+*1w1:w",
"%>>,,,=*1r=;;%=%=$X;><23>=>r1=:;*;%*%%,>>3,=*1r==:",
"<+>>51>><<;X=;:=87;>,131>>>;;6$$;<%9:=>>111=>><;X-",
"1>+1;;>>.#11=$1<;=1>+>;<;>$#=1-*<1;;1=>+<=;=*.$<w-",
"*=>+8%;=#;>,>$*9;*$*>+=6;;#$1>-&&<9%$&<>+;;8=.;<,-",
"**;<*=#.1191333>%**$;<=$*.;119q3328%*$*8<=*##<19qq",
";.%;$;$.1,*1,>1;;%;;#;*$6.%5&<q,<1%6%;%%8&;%.<<=1r",
";<$*;;;=>;$*><;;X;;<;%;:=;****-=*;X;6=<%#;;==*=*>,"
};
