/* XPM */
static char *_ce8c9d4f0a84b9bfb593723f22e61646J0YKPBhgh0Zo7ys[] = {
/* columns rows colors chars-per-pixel */
"50 50 164 2 ",
"   c None",
".  c black",
"X  c #000100",
"o  c #010200",
"O  c #000300",
"+  c #010500",
"@  c #020500",
"#  c #010600",
"$  c #020600",
"%  c #020700",
"&  c #040600",
"*  c #050600",
"=  c #050700",
"-  c #030800",
";  c #030A00",
":  c #030B00",
">  c #050800",
",  c #050900",
"<  c #060800",
"1  c #060900",
"2  c #070900",
"3  c #030C00",
"4  c #040D00",
"5  c #070D00",
"6  c #070E00",
"7  c #080B00",
"8  c #090F00",
"9  c #051000",
"0  c #0D1100",
"q  c #0E1400",
"w  c #042700",
"e  c #052700",
"r  c #0F2400",
"t  c #102400",
"y  c #112600",
"u  c #122600",
"i  c #132A00",
"p  c #142A00",
"a  c #142B00",
"s  c #132C00",
"d  c #142C00",
"f  c #152C00",
"g  c #152E00",
"h  c #162E00",
"j  c #162F00",
"k  c #172F00",
"l  c #163000",
"z  c #173000",
"x  c #173100",
"c  c #183000",
"v  c #193000",
"b  c #183100",
"n  c #1A3000",
"m  c #1A3100",
"M  c #183200",
"N  c #193200",
"B  c #183300",
"V  c #1A3200",
"C  c #1B3300",
"Z  c #282F00",
"A  c #313701",
"S  c #303801",
"D  c #303901",
"F  c #303A01",
"G  c #313A01",
"H  c #313B01",
"J  c #323A01",
"K  c #333A01",
"L  c #323B01",
"P  c #333B01",
"I  c #333C01",
"U  c #333D01",
"Y  c #204000",
"T  c #204100",
"R  c #214100",
"E  c #234100",
"W  c #214200",
"Q  c #224200",
"!  c #224300",
"~  c #364801",
"^  c #374901",
"/  c #455101",
"(  c #465201",
")  c #589D03",
"_  c #589E03",
"`  c #599E03",
"'  c #58A103",
"]  c #58A203",
"[  c #59A203",
"{  c #59A303",
"}  c #5BA203",
"|  c #5BA303",
" . c #5CA303",
".. c #5BA403",
"X. c #59A603",
"o. c #5CA403",
"O. c #5CA503",
"+. c #5DA503",
"@. c #5CA703",
"#. c #5DA703",
"$. c #5EA703",
"%. c #5AA803",
"&. c #5CA803",
"*. c #5DA803",
"=. c #5EA803",
"-. c #5FA803",
";. c #5FA903",
":. c #5DAA03",
">. c #5FAA03",
",. c #62A403",
"<. c #62A503",
"1. c #63A503",
"2. c #63A603",
"3. c #60A903",
"4. c #60AA03",
"5. c #60AB03",
"6. c #64A903",
"7. c #65A903",
"8. c #66A903",
"9. c #65AA03",
"0. c #65AB03",
"q. c #66AA03",
"w. c #67AB03",
"e. c #60AC03",
"r. c #61AD03",
"t. c #67AC03",
"y. c #67AD03",
"u. c #6CAB04",
"i. c #6DAC04",
"p. c #A4BC07",
"a. c #A5C007",
"s. c #A5C107",
"d. c #A6C107",
"f. c #A6C407",
"g. c #A7C407",
"h. c #A7C507",
"j. c #A8C107",
"k. c #A9C207",
"l. c #A9C307",
"z. c #AAC307",
"x. c #AAC407",
"c. c #ABC407",
"v. c #ABC408",
"b. c #AAC608",
"n. c #ABC608",
"m. c #AAC708",
"M. c #ABC708",
"N. c #ACC408",
"B. c #ACC508",
"V. c #ACC608",
"C. c #ACC708",
"Z. c #ACC808",
"A. c #ADC808",
"S. c #ADC908",
"D. c #AEC808",
"F. c #AFC908",
"G. c #AECA08",
"H. c #B0C908",
"J. c #B0CA08",
"K. c #B1CA08",
"L. c #B1CB08",
"P. c #B2CB08",
"I. c #B3CC08",
"U. c #B3CD08",
/* pixels */
"                                                                                                    ",
"                                                                                                    ",
"                    # # # 1 1 1 1 1 1                         1 1 7 1 1 1 # # #                     ",
"                    . . . . . . . . .                         . . . . . . . . .                     ",
"                    z z c L L L L I L                         L I L L L A c z h                     ",
"              # . z ` ..,.d.k.k.k.c.p.L . 1             1 . L p.c.d.k.k.p.3.| ` z . #               ",
"              # . z ..;.w.G.U.P.P.U.C.L . 1             1 . P C.U.P.P.P.G.t.=.@.z . #               ",
"              # . z } o.w.d.k.k.k.k.p.L . 1             1 . A p.c.k.k.v.d.7.@.| z . #               ",
"              & . z } 4.o.~ A I L L D 0 . # # # # # # # # . 0 D P L I A ~  .4.| c . #               ",
"              # . c } 4.o.e . . . . . . . . . . . . . . . . . . . . . . w  .4.| c . #               ",
"              # . z } 4.} c . 5 1 & 5 h c c z z c c z z z z h 5 & 1 5 . c  .4.| z . #               ",
"        # # # : . z } e.} z . : 1 . z ` o.} .... . . . .} o.` z . : 3 . c  .4.| z . 1 # # #         ",
"        . . . . . i } 4.} i . . . . i ..;...;...%...;...;.%.} i . . . . i | 4. .i . . . . .         ",
"        z z z z i W ..4.} W i z c i W ,.w.7.w.w.w.w.w.w.w.w.,.W i c z s W  .4. .W i z z c h         ",
"  # . c ` o.} } } ..o.;.o... .} ..} ,.g.M.M.C.C.M.M.M.M.M.M.g.,.| .. . . .@.=.@.| | ..|  .` c . #   ",
"  # . c o.4.;.;.;.;.;.;.;.;.;.;.;.%.0.G.P.P.P.C.P.G.P.G.P.U.G.0...4.@.@.@.3.=.=.=.4.=.=.4.@.z . #   ",
"  # . z ..;...;.;.;.;.;.o.4.w.w.w.4.u.d.c.k.G.P.G.C.G.C.k.k.d.u.w.w.w.7.7.=.=.=.=.=.=.@.4.| h . #   ",
"  # . z } ;.;.;.%.;...;.0.g.M.M.M.m.d./ Z ( k.P.C.P.P.k./ Z / d.C.C.g.M.g.7.=.=.=.=.=.=.=.| h . #   ",
"  # . z ..;.;.o.;.o.4.o.w.G.P.P.G.P.k.Z . Z p.P.P.C.P.k.Z . Z k.P.C.P.P.G.7.=.=.=.=.=.=.=.@.z . #   ",
"  # . z } ;.;.;.;.;.;.o.4.c.M.M.C.P.c./ Z ( k.P.C.P.P.k./ Z / c.P.C.M.M.g.7.%.=.=.=.=.=.=.| z . &   ",
"  # . c ..;.o.;.;.;.o.;...0.4.i.C.P.C.k.k.k.C.G.P.C.C.C.c.k.k.G.P.M.u.w.w.;.;.;.=.=.=.@.4.| z . #   ",
"  # . c o.;.4.;.;.;.;.;.;.;...w.M.P.P.G.P.P.P.C.H.H.P.P.U.P.P.P.G.M.4...%.o.;.;.4.=.4.=.4. .z . #   ",
"  # . z _ ..} ..} ....;.;.;.o.w.d.M.M.M.M.M.M.M.M.M.M.M.v.M.M.M.M.g.w.o.;.o.;.o.| | | |  .` z . #   ",
"        z z z z i T } ;.o.;.;.;.w.w.w.w.w.w.w.7.7.w.7.w.w.4.w.w.w.w.;.;.;.;.;...W i z h z z         ",
"        . . . . . h ..;.;.;.;.;.;...%...;.o.%...o.o.o.;.....%.;.;...;.;.;.;.;.o.h . . . . .         ",
"        # # # 1 . c ` ..} ..} } ;.;.;.;.;.;.;.;.;.;.;.;.;.;.;.;.4.o...} ..} o.` z . 1 & # #         ",
"                    c c z B i W } o.;.;.;.o.;.;.;.o.;.;.;.;.o.;.;.} W i z z B c                     ",
"                    . . . . . a o.>.;.;.;.;.;.;.;.;.;.;.;.;.;.;.4. .a . . . . .                     ",
"                    c c h 9 . h } ..} ......} ..........} ..} } o.} h . 9 z c c                     ",
"        1 1 1 : . c ` .._ z . 9 h z z z B z z z z z z z z z z z z z 9 . z ` o.` c . : 1 1 1         ",
"        . . . . . a o.e...a . . . . . . . . . . . . . . . . . . . . . . i ..e.o.a . . . . .         ",
"        L I L c i W ` .._ W h z z B z z z B z z B z z B z z B z z z z i T _ } ` W i c L P L         ",
"  1 . L p.v.p.,...` W y W ` o. ...} ..} } } } ..} ..} ..} } } } ..} } o.` W y W ` ..,.p.M.p.L . 1   ",
"  1 . L v.U.G.w.;...y . y o.e.4.;.4.;.4.4.4.;.;.;.;.;.;.4.e.4.;.;.;.4.e.o.y . y ..;.w.G.U.M.I . 1   ",
"  1 . L p.G.d.w.%.o.! y W `  .} o.;.o.} } o.o.;.;.o.;.o.} } } ;.;.o.}  ._ W y ! ..;.4.d.G.p.L . 1   ",
"  # . c 7.t.4.;.;.o...o.` W y W ..e.o.W r W o.4.;.;.4.o.W r W } e.} W y W ` ..} o.;.;.w.w.7.c . #   ",
"  # . z } %.;.;.;.;.;.4.} h . h } 4.} h . s } ;.;...;...s . h } 4.} h . h } ;.;.;.;.;...o.} z . #   ",
"  # . z  .;.o...} } ;.;.} c . z } 4.} B . B ,.0.w.w.0.,.B . c  .4.} B . B } ;.;...} ..;.4.o.z . &   ",
"  # . z } 4.} W y W } 4...z . z } e. .B . I p.G.M.M.M.p.I . c  .e.} z . z ..4.} W y ! } 4.} z . #   ",
"  & . c ..e.} y . y  .e.o.B . z } 4. .c . I N.U.G.P.P.v.I . B  .4.} z . c o.e.o.y . y } e...z . #   ",
"  # . z ` o._ W y W ` o.` z . z } 4.} B . I p.k.k.k.k.p.I . c } 4.} z . h `  ._ W y W _ o.` z . #   ",
"        c i T _ ..` W a h 5 . z } 4.} c . q L L L L P L q . c } 4...z . 5 z a W ` o._ T i c         ",
"        . . h ..e.o.y . . . . z } %.} w . . . . . . . . . . w } ;...z . . . . y o.e.o.h . .         ",
"        3 . c ` o.` W h z 5 . c 7.0.,.~ A L 0 & & 1 # 0 D L ~ ,.0.,.c . 5 z h W ` ..` c . 3         ",
"              c i W ` o.` c . I p.G.M.d.k.p.L . 1 1 . L p.k.k.M.m.d.L . c ` o.` T h c               ",
"              . . a o.e...B . I N.P.P.P.U.M.L . 1 & . P C.U.P.P.U.C.I . c o.e.o.i . .               ",
"              3 . h _ ..) c . L p.k.k.k.c.p.L . & & . L p.k.k.k.k.p.L . h ` ..` h . 3               ",
"        . . . . . # h h h : . 5 L L L L L L 7 . . . . 7 L P L P L L 7 . : h z h # . . . . .         ",
"        . . . . . . . . . . . . . . . . . . . . . . . . . . . . . . . . . . . . . . . . . .         ",
"        . . . . . . # # # . . . & 1 & 7 7 & . . . . . . & 1 & 7 1 & . . . # # # . . . . . .         "
};
