/* XPM */
static char *d64c6ab0797b4ef1f003febb3a19ccaddAUQHsb8oJgrMveP[] = {
/* columns rows colors chars-per-pixel */
"50 50 113 2 ",
"   c None",
".  c #004600",
"X  c #004C00",
"o  c #0C4B0D",
"O  c #005200",
"+  c #005B00",
"@  c #0E4810",
"#  c #006400",
"$  c #006C00",
"%  c #007500",
"&  c #007B00",
"*  c #2E7A31",
"=  c #317A34",
"-  c #3A773E",
";  c #357B39",
":  c #57005D",
">  c #59005F",
",  c #5A0160",
"<  c #5E0964",
"1  c #610C66",
"2  c #620E68",
"3  c #631069",
"4  c #69166F",
"5  c #6E1774",
"6  c #771A7E",
"7  c #781E7F",
"8  c #6E2F74",
"9  c #74247B",
"0  c #742E7A",
"q  c #434D46",
"w  c #474D4A",
"e  c #457649",
"r  c #487F4B",
"t  c #517C54",
"y  c #597A5D",
"u  c #67556D",
"i  c #6E4F74",
"p  c #6B5071",
"a  c #69746E",
"s  c #6E7273",
"d  c #008600",
"f  c #008900",
"g  c #0A860B",
"h  c #0E880F",
"j  c #128614",
"k  c #138815",
"l  c #19851A",
"z  c #3F8242",
"x  c #7D0D84",
"c  c #7F1386",
"v  c #7A1E81",
"b  c #7D2384",
"n  c #7E2985",
"m  c #7B3381",
"M  c #7F5C85",
"N  c #7E6A83",
"B  c #800D87",
"V  c #82038A",
"C  c #82088A",
"Z  c #801187",
"A  c #801F87",
"S  c #802387",
"D  c #83278A",
"F  c #852C8C",
"G  c #8C2F93",
"H  c #94359B",
"J  c #97389E",
"K  c #98399E",
"L  c #9B3DA2",
"P  c #A137A8",
"I  c #AB3DB2",
"U  c #B131B9",
"Y  c #88558F",
"T  c #865E8C",
"R  c #964E9D",
"E  c #915B97",
"W  c #96579D",
"Q  c #806B85",
"!  c #84658A",
"~  c #85658A",
"^  c #8C6292",
"/  c #A040A7",
"(  c #A341AA",
")  c #A442AB",
"_  c #A447AB",
"`  c #A542AC",
"'  c #A643AD",
"]  c #A643AE",
"[  c #A743AE",
"{  c #A644AD",
"}  c #A645AD",
"|  c #A646AD",
" . c #A744AE",
".. c #A645AE",
"X. c #A745AE",
"o. c #A746AE",
"O. c #A844AF",
"+. c #A845AF",
"@. c #A846AF",
"#. c #A847AF",
"$. c #A649AD",
"%. c #A748AE",
"&. c #A749AE",
"*. c #AA41B1",
"=. c #AB40B2",
"-. c #A945B0",
";. c #A946B0",
":. c #AA46B1",
">. c #AB47B2",
",. c #AC46B3",
"<. c #AC47B3",
"1. c #AD40B4",
"2. c #AC46B4",
/* pixels */
"                                                                                                    ",
"                                                                                                    ",
"                        X + O X                                     O O + X                         ",
"                          O O X                                     X O O                           ",
"                        X X O X                                     X O X X                         ",
"            X O O O O O O X O X                                     X O X O O O O O O X             ",
"            X O X X X X X . X X                                     . X X X X X X X O X             ",
"            X O X O + + + + # +                                     + # + + + + O X O X             ",
"            X O X % f d f d f & X O X                         X O X % f f f d f % . O O             ",
"            X O . % f d d d f % . O X                         X O . % f d f d f % . O X             ",
"            O + O & f d f d f % . O X                         X O . % f d d d d % O + O             ",
"      X X X & f d d d d f f f % X O O                         O O X % f f & $ $ % d d & X X X       ",
"      X O X & f d d d d f d f % . X X                         X X . % f f & # $ & f f & . O X       ",
"      X X X & f d d f d d d f % X O O                         O O X % f f & $ $ % f f & X O X       ",
"      O O X & f d d d f & $ % % d d & @ X w [ [ [ } [ [ w X @ & d d d d d d d d d f f & X X X       ",
"      X X X & d d d d f & $ $ % f f & o X w >.2.2.>.2.,.w O o & f f d f d d f d d d f & X O X       ",
"      X X X & f d d d f & $ $ % d f & X X q } >.} } [ } q X X & f f f f d d f d d d f & . X X       ",
"X X X % d & % % $ d f d d & d d g f - 9 0 0 F F G [ [ [ m 8 9 - f g d d d f d d f d d d & d & X X X ",
"O O X d f f % $ $ & f d d f f d k f e C S v v v b [ [ ) D v C e f k g f d d d d d f d d f f d O O O ",
"X X X d d d % $ $ & f f d d g f f f ; x b b v v b [ >.>.F v c ; f f f g f f f f f d d f d f & X X X ",
"X X X d f d d & d d d d f g f y E ^ Y v b D L L K n b n b b c Y ^ E y f h & % % & f f d d f & X X X ",
"X X X & f d d d d d d d d j f s U 1.P b v F } >._ 1 : , v b b P I U s f k % $ $ % f d d f f d X X X ",
"X X X d f d d f f d d d d j f a I &.L 6 6 D >.<.} 4 < 2 v b v L &.I a f k & $ $ & f d d d f d X X X ",
"O X X & f f d d d d f d f k f a I #.) H J H F F F 3 < < v b b L &.I s f j d & & & & & & d f & X X X ",
"X X X d d d d f d d d d d j f a I _ } *.>./ > : : < 1 1 v b v L #.1.a f k f d f & $ $ % f f d X X X ",
"X X X d d d d d d d f f f j f s U I I >.>.) < 1 < < < < 7 b v P 1.U s f j f d f & # $ % f f & X X X ",
"X X X & f d f d f d & & d g f t ~ N T J H H 5 5 5 5 5 5 v b c N Q ~ t f g d d f d % & & d f & X X O ",
"X X X d f d f d f % $ $ & d g d f f * x 9 9 b D n S S S n n Z = f f f d d f f d f f f d d f d X X X ",
"O O X d f f d d f % $ $ & f f g l f e V C B v v v 7 v v x V V e f l g d d d d f f f d d f f d O O O ",
"X X X % & & d d f & $ $ & f d d g f ; p u p G G G G G G i u i ; f g d f f f d d d d d d % & % X X X ",
"      X . . & f f % $ $ & f d f f d f f f z +.>.} #.#.#.z f f d d f f d d d f d d d f & . . X       ",
"      X O X & f d % $ $ & f d d d f f k f r *.*.*.*.I I r f j d d d f d f f d d d d f & X O X       ",
"      X O X & f f & % $ & f d d f d d g f z R R R W W W z d g d d d d d d d d d d d f & X O X       ",
"      X X X & d d d f d f f d f d d f d d d $ $ % d g d f d d f f f % $ $ & d d f d f & X X X       ",
"      X O X & f f d d d d d f d d f d f d d $ $ $ d f d f d d d d f % $ $ & f d d d f & X O X       ",
"      X X X & d d d d d d d d d d f d d d d $ $ % d g d d d f f f d & $ $ & f f d d d % X X O       ",
"            O O X % f f & $ $ % f d d d d d $ $ $ d d d d f d d d d d d d d d f % X O O             ",
"            X O . % f f & $ $ % f d d f f d $ $ $ d f f d d d f d f f d d d f f % . O X             ",
"            O O . % f d & $ $ & f d f d d d $ $ % d d d f d d d d d f d f d d f % . O X             ",
"            X O X O O O $ d d d f d d d d d d d g % $ $ d d f d f d d d f % X O O X O X             ",
"            X O X X X . $ f f f f d d f d d d f d % # $ d d d d d d d d f $ . X X X O X             ",
"            X O X O O X $ f d f f f f d d f f d d $ $ $ d f f d f f d d f % . O O X O X             ",
"                        + # + + + O $ f d d f d d d d d d d f $ + + + + # +                         ",
"                          X X X X . + f d d d d d d d d d d f + . X X X X                           ",
"                        X + O O O X # f f f f d d f f f d f f # X O O O + X                         ",
"                                      $ # # # # # # # # # # $                                       ",
"                                      . . X X X . X . . X X X                                       ",
"                                      + O O O O O O O O O O O                                       ",
"                                                                                                    ",
"                                                                                                    "
};
