/* XPM */
static char *_e5e848fde5e4420bd7faeb8c2a02f0d8BYECj7suHDeVgfG[] = {
/* columns rows colors chars-per-pixel */
"50 50 163 2 ",
"   c None",
".  c #7F6320",
"X  c #FF0000",
"o  c #FF0D00",
"O  c #FA0009",
"+  c #FE1301",
"@  c #FE1B00",
"#  c #FE2401",
"$  c #FE2901",
"%  c #EE3A0E",
"&  c #FD3500",
"*  c #F53B07",
"=  c #FD3A02",
"-  c #F33D0B",
";  c #EC3E12",
":  c #944929",
">  c #8C5B25",
",  c #975F28",
"<  c #826521",
"1  c #8E6F24",
"2  c #976D27",
"3  c #996E27",
"4  c #9B6329",
"5  c #986A28",
"6  c #926526",
"7  c #957425",
"8  c #987626",
"9  c #9E7B27",
"0  c #9F7B28",
"q  c #9B712A",
"w  c #A26B2A",
"e  c #A37129",
"r  c #A17D28",
"t  c #FB4300",
"y  c #F2420B",
"u  c #EC5A0E",
"i  c #F85700",
"p  c #F45F03",
"a  c #EC4812",
"s  c #EB5213",
"d  c #D7651F",
"f  c #F66500",
"g  c #F56A00",
"h  c #F37300",
"j  c #FF7000",
"k  c #FF6E1F",
"l  c #FF711F",
"z  c #F87D19",
"x  c #CB6A20",
"c  c #D17F27",
"v  c #FF6C21",
"b  c #FF7321",
"n  c #988524",
"m  c #97842B",
"M  c #9E842A",
"N  c #A58129",
"B  c #AB842A",
"V  c #AF882B",
"C  c #B38C2C",
"Z  c #A39D25",
"A  c #B7922D",
"S  c #BD922E",
"D  c #BE8C30",
"F  c #BC9931",
"G  c #9EA823",
"H  c #A5A423",
"J  c #A4AC21",
"K  c #A8B122",
"L  c #BDB12A",
"P  c #EF8501",
"I  c #ED8B00",
"U  c #EA9400",
"Y  c #E89900",
"T  c #F29800",
"R  c #DFB100",
"E  c #D7BE01",
"W  c #D9BE00",
"Q  c #E4A300",
"!  c #E1AD02",
"~  c #E0B001",
"^  c #C3962F",
"/  c #C59B30",
"(  c #CC9933",
")  c #FF8729",
"_  c #FF8928",
"`  c #FC8D26",
"'  c #FF9D31",
"]  c #CDA132",
"[  c #D4A434",
"{  c #D3AA33",
"}  c #DAAA36",
"|  c #E1AE37",
" . c #E2AF38",
".. c #FFA132",
"X. c #E4B238",
"o. c #EAB539",
"O. c #EEB93B",
"+. c #FEB237",
"@. c #FFB53A",
"#. c #F2BC3C",
"$. c #FFBB3B",
"%. c #A2CE18",
"&. c #A9CC1B",
"*. c #B9DB1F",
"=. c #8FFF00",
"-. c #9BFF00",
";. c #A5E70F",
":. c #BCE502",
">. c #BCEA01",
",. c #A4FF00",
"<. c #ABFE00",
"1. c #B5F300",
"2. c #BCF300",
"3. c #B3FF00",
"4. c #BAFF00",
"5. c #B7F70F",
"6. c #B1FC0B",
"7. c #A9E113",
"8. c #BBF614",
"9. c #B6F910",
"0. c #B9F814",
"q. c #B8FD1A",
"w. c #CFCD00",
"e. c #D4C402",
"r. c #D3CA01",
"t. c #DCC900",
"y. c #CDD200",
"u. c #C7DE00",
"i. c #C9DB00",
"p. c #DBC311",
"a. c #C3E302",
"s. c #CAE000",
"d. c #C6E903",
"f. c #C1FF00",
"g. c #C2ED16",
"h. c #C3F31C",
"j. c #F7C03D",
"k. c #FFC63F",
"l. c #F7CD3B",
"z. c #FCC93E",
"x. c #E8D230",
"c. c #E4DE32",
"v. c #EAD934",
"b. c #F7D33E",
"n. c #D5E727",
"m. c #D3EA27",
"M. c #D6E72A",
"N. c #D6E629",
"B. c #DEE22E",
"V. c #D5E929",
"C. c #E0E230",
"Z. c #FFBE42",
"A. c #FFC041",
"S. c #FFC241",
"D. c #FFC442",
"F. c #FFC542",
"G. c #FFC940",
"H. c #FFC840",
"J. c #FFCA41",
"K. c #FFCC41",
"L. c #FFC940",
"P. c #FFD444",
"I. c #FFDA45",
/* pixels */
"                                  X X $ X e.,.<.<.<.<.<.<.<.<.<.<.                                  ",
"                                  X X $ X t.,.3.3.<.<.3.<.3.<.<.4.                                  ",
"                                  @ @ $ X e.,.<.<.<.<.,.,.<.<.<.3.                                  ",
"                                  X X # X e.-.,.,.,.<.<.<.<.<.<.4.                                  ",
"                    <.<.<.,.<.,.1.s.u.i X g I I I P :.,.<.<.<.<.<.<.<.<.                            ",
"                    f.<.4.3.4.3.<.,.<.f X X X X X X a.,.<.<.<.<.<.<.4.<.                            ",
"                    3.<.<.<.<.<.<.<.<.f X & & & $ X a.,.<.<.<.<.,.<.3.<.                            ",
"                    4.<.,.-.,.,.,.<.<.t X X X X X X :.-.,.,.,.,.<.<.3.<.                            ",
"                    4.<.~ Q ~ Q r.,.<.w.r.r.r.p...' x.B.c.c.B.<.<.<.<.<.<.<.g X                     ",
"                    3.>.X X X X I ,.<.,.-.,.-.q.K.K.D.A.A.Z.G.6.,.<.<.<.4.4.j X #                   ",
"                    <.1.t + = X U ,.<.<.<.6.,.h.D.k.k.k.z.D.l.6.<.<.<.<.,.<.g X                     ",
"                    4.1.= X # X Y -.,.,.,.,.-.0.D.k.k.k.z.A.l.,.,.,.<.<.<.<.g X                     ",
"                  <.<.1.= X @ X h r.e.n.V.V.m.B.k.k.k.k.D.k.z.M.V.*.%.7.<.<.g X #                   ",
"          4.4.4.4.4.,.1.& X o o X X X @.D.A.A.A.D.z.k.k.k.k.k.A.A.( : J <.<.g X + X X               ",
"          <.<.<.,.<.<.1.t X # + # $ = Z.z.k.k.z.k.k.z.D.k.k.k.k.z.] 2 K ,.<.g X # # #               ",
"          ,.,.,.,.,.,.>.X X X X X X X $.z.k.k.D.G.z.k.k.k.k.k.k.G./ > J <.<.g X X X X               ",
"          s.i.i.i.>.,.1.Y I z v b v b k.G.k.k.k.o.X.j.z.D.k.k.k.z.} D L ;.7.p X g T Y               ",
"          X X X X ! ,.<.,.,.C.D.G.G.z.k.k.k.G.O.8 8 O.G.k.k.k.k.D.k.K.O.5 e - X r.-.,.3.4.          ",
"          @ + & X R ,.<.<.,.v.A.k.k.k.k.k.k.z.#.r r O.G.k.k.k.k.k.k.D.o.9 N y X E ,.<.<.<.          ",
"          o X $ X R ,.<.,.,.c.A.k.G.D.k.k.k.G.#.8 8 O.G.k.k.k.G.G.k.z.o.7 0 * X E ,.<.,.<.          ",
"          X X $ X R -.<.0.9.v.A.j.#.#.k.k.k.D.#.C V #.G.k.k.k.#.#.j.G.O.V A s O E ,.<.>.2.          ",
"k.I.      X X $ X ! -.8.z.k.k.G.o.8 N j.G.k.k.k.k.k.k.k.k.D.j.B 8 X.G.k.k.j.C 4 &.,.>.@ X @ X X     ",
"k.I.      X X $ X ! -.8.z.A.k.G.o.8 N j.G.k.k.k.k.k.k.k.k.G.j.B 8  .z.k.z.k.A 4 &.,.>.+ X @ X X     ",
"z.I.      X X $ X R -.8.z.k.k.G.o.7 N #.G.k.k.k.k.k.k.k.k.G.j.N 7  .G.k.k.k.V 4 &.,.>.X X + X X     ",
"D.I.      X X $ X ! ,.8.j.D.k.G.o.0 V #.G.k.k.z.k.k.z.D.k.G.j.V 0 X.G.k.k.k.A w &.,.:.= & # X o     ",
"k.G.N.-.a.X X # X ` P.l.D.z.k.k.k.j.j.k.k.k.k.k.k.D.k.k.k.k.k.j.#.k.z.D.k.k.j.D.{ n J 1.3.P X &     ",
"z.F.V.,.d.X X $ X ) D.k.z.k.k.G.k.k.z.k.k.k.k.D.z.k.k.k.k.k.k.z.z.k.k.k.k.k.z.G.[ 4 Z <.,.I X &     ",
"k.F.V.-.a.X X # X _ K.k.k.k.k.k.k.k.D.k.k.k.k.k.k.k.k.k.k.k.k.D.D.k.k.k.k.k.k.G.[ 2 Z <.,.I X &     ",
"z.F.M.-.a.X X @ X ) K.k.D.z.k.k.k.k.k.k.D.k.k.z.z.D.k.k.k.k.k.z.k.k.k.k.D.z.D.G.{ 6 Z ,.,.I X =     ",
"z.D.N.-.a.X X ..+.$.G.j.^ C o.G.k.k.k.k.z.k.k.k.k.k.k.k.k.k.k.D.k.k.G.O.C A j.G.Z.O.X.H G u X @     ",
"D.G.M.-.a.X X @.K.D.G.#.r 1 X.G.D.z.k.k.k.k.z.k.k.k.k.k.k.k.k.k.k.k.z.o.7 0 #.G.z.K.j.e q ; X +     ",
"G.F.M.-.:.X X @.G.k.G.j.B 0 o.G.k.k.k.k.k.k.D.k.k.k.z.k.k.D.z.k.k.k.G.o.0 N #.G.k.G.O.N M a X @     ",
"k.F.m.-.a.X X +.G.k.G.#.r 1 X.G.k.k.k.k.k.z.k.k.D.k.k.k.k.k.k.k.D.k.G.o.7 8 #.G.k.G.#.8 7 % X X     ",
"k.D.V.-.g.' ..k.G.A.G.j.X. .#.k.k.k.k.k.D.k.k.k.z.k.k.k.z.k.k.k.z.k.z.#.} X.k.k.k.k.j.X.X.^ d x     ",
"G.F.V.-.h.G.K.k.k.k.k.k.G.z.z.D.D.k.k.k.k.k.z.k.k.k.k.z.k.k.k.k.k.z.D.z.G.G.k.k.k.k.k.G.G./ m M     ",
"k.F.V.-.h.k.k.k.k.k.k.k.k.k.D.z.z.k.k.D.k.k.k.k.z.k.k.D.k.D.z.k.k.k.k.D.k.k.k.k.k.k.k.j.D.^ r B     ",
"k.D.m.=.8.D.k.G.G.G.k.k.D.k.k.k.D.k.k.z.k.k.k.k.D.k.k.k.k.k.k.k.k.k.z.D.k.k.k.k.z.z.D.k.G.A 8 0     ",
"G.G.v.m.C.D.k. .[ o.G.k.z.k.k.k.z.k.k.k.k.z.k.k.k.k.k.k.k.k.D.z.k.k.k.k.k.k.k.G.O.[  .k.k. .} (     ",
"k.K.D.A.A.k.k.C . ] G.k.k.D.k.k.k.k.k.k.k.D.D.k.k.k.k.z.k.D.k.k.k.k.k.k.z.k.k.K.[ < V D.k.k.P.o.r C ",
"k.k.k.z.k.k.z.^ 8 [ G.k.k.z.k.k.k.k.k.k.k.z.z.k.z.k.k.D.k.z.k.k.D.z.k.k.D.k.k.G.[ 8 A k.k.k.z. .8 r ",
"k.I.G.k.k.k.D.C . ] G.D.z.k.k.k.k.k.k.z.k.k.k.k.k.k.z.k.k.k.k.k.k.k.k.k.k.k.D.G.[ < C k.k.j.G. .8 r ",
"k.k.D.z.k.k.z.[ S X.z.k.k.k.k.k.k.k.k.k.D.k.k.k.k.k.k.k.k.k.k.k.k.k.k.k.z.k.k.G.X.^ [ k.k.k.z. .8 N ",
"    k.P.k.k.k.z.G.G.D.k.k.k.D.z.D.k.k.G.k.k.k.k.k.k.k.k.k.k.k.k.k.k.k.k.D.k.z.G.D.G.G.z.k.k.G. .8 r ",
"    k.P.D.k.k.k.j.D.k.k.k.k.k.k.k.k.k.D.k.k.k.k.k.D.D.k.k.k.k.k.k.k.k.k.k.k.j.D.k.k.j.D.k.k.z. .8 r ",
"    k.P.k.k.z.D.z.D.G.D.G.D.z.G.D.G.D.G.G.G.G.D.z.G.D.G.z.G.G.D.G.G.D.G.D.G.D.G.G.G.G.z.G.D.K.o.r B ",
"    k.P.k.O.#.#.#.#.#.#.#.#.#.#.#.#.#.O.#.#.#.#.#.#.#.#.#.#.#.#.#.#.O.#.#.#.#.#.#.#.#.#.O.#.j.} 8 r ",
"    k.P.O.0 0 r 0 0 9 9 r 9 9 9 9 r 9 9 9 9 9 9 r 9 9 9 9 0 r 9 0 0 0 0 r 9 9 9 9 9 0 9 0 0 B 9     ",
"    k.I.O.0 r r r r r r r r r r r r r r r r r r r r r r r r r r r r r r r r r r r r 0 0 N r V r     ",
"    k.P.O.9 r r r r r r r r r r r r 0 r r r r 9 r r r 0 r r 9 r r r r r r r r r r r r r r r V 0     ",
"    k.P.O.9 9 N r r r 0 r r r r r r N 9 r r 0 N r r 9 N r r r r r r r r r r r 0 r r r r r r V 0     "
};
