/* XPM */
static char *_8e3f81fa8244327eb32952636e2ffafYRDeYTrMZ1TSd3wX[] = {
/* columns rows colors chars-per-pixel */
"50 50 219 2 ",
"   c #530500",
".  c #5D0300",
"X  c #5D0A03",
"o  c #630400",
"O  c #640B00",
"+  c #6D0D00",
"@  c #720E00",
"#  c #6C1201",
"$  c #6D1900",
"%  c #6C150B",
"&  c #6A1508",
"*  c #731300",
"=  c #7A1500",
"-  c #731B00",
";  c #7C1B00",
":  c #711A0D",
">  c #7A1A0D",
",  c #75170B",
"<  c #6D1D14",
"1  c #6C1F19",
"2  c #761C13",
"3  c #791D14",
"4  c #752000",
"5  c #7C2400",
"6  c #7F2A00",
"7  c #68211A",
"8  c #712119",
"9  c #7B2319",
"0  c #782012",
"q  c #7F2D21",
"w  c #821D00",
"e  c #891C02",
"r  c #8B1B0C",
"t  c #871B0B",
"y  c #901F0F",
"u  c #931F10",
"i  c #842300",
"p  c #8A2500",
"a  c #842A00",
"s  c #8B2C00",
"d  c #86270C",
"f  c #912501",
"g  c #932C00",
"h  c #992D00",
"j  c #9F2F09",
"k  c #853103",
"l  c #8B3204",
"z  c #8B3409",
"x  c #8D390D",
"c  c #943201",
"v  c #9C3301",
"b  c #993907",
"n  c #923609",
"m  c #94390B",
"M  c #9B3C0B",
"N  c #963907",
"B  c #842E12",
"V  c #872717",
"C  c #942A14",
"Z  c #9D2C11",
"A  c #982919",
"S  c #8B3717",
"D  c #943C12",
"F  c #9A3D11",
"G  c #993519",
"H  c #A33500",
"J  c #A43902",
"K  c #AB3D03",
"L  c #A33D0B",
"P  c #A7360B",
"I  c #A22E13",
"U  c #A0331B",
"Y  c #A73817",
"T  c #B43A18",
"R  c #B13E05",
"E  c #822B21",
"W  c #8A3A23",
"Q  c #8E3726",
"!  c #933D22",
"~  c #9C3D22",
"^  c #953927",
"/  c #A33622",
"(  c #A23C22",
")  c #A73C29",
"_  c #954115",
"`  c #9D4214",
"'  c #95421C",
"]  c #9C451A",
"[  c #9E4A1D",
"{  c #A2410E",
"}  c #AC420A",
"|  c #B3450C",
" . c #B9460D",
".. c #B5480E",
"X. c #BA490E",
"o. c #B24106",
"O. c #A34414",
"+. c #A94614",
"@. c #A54917",
"#. c #AC4916",
"$. c #A4451A",
"%. c #A44A1B",
"&. c #AB4C1C",
"*. c #B54A13",
"=. c #BC4C13",
"-. c #B24D1A",
";. c #BB4E19",
":. c #B84413",
">. c #AE501D",
",. c #BC5016",
"<. c #B4511E",
"1. c #BD531C",
"2. c #944024",
"3. c #9C4123",
"4. c #9C442A",
"5. c #944434",
"6. c #9B4837",
"7. c #A14123",
"8. c #A44E21",
"9. c #AB4E21",
"0. c #A8422C",
"q. c #B54727",
"w. c #A55225",
"e. c #AC5224",
"r. c #AC552A",
"t. c #AE592C",
"y. c #B45424",
"u. c #BC5522",
"i. c #B55826",
"p. c #BC5926",
"a. c #B35728",
"s. c #B5592B",
"d. c #BB5B2A",
"f. c #A44731",
"g. c #B24934",
"h. c #AB543A",
"j. c #AB5830",
"k. c #B95739",
"l. c #C04E15",
"z. c #C04C19",
"x. c #C2551D",
"c. c #C25015",
"v. c #C54C22",
"b. c #C9492B",
"n. c #C35421",
"m. c #C35A24",
"M. c #C35E29",
"N. c #CA5529",
"B. c #D04F30",
"V. c #C8573A",
"C. c #D35737",
"Z. c #AB5B44",
"A. c #B45C44",
"S. c #B95E44",
"D. c #BB5F4A",
"F. c #BA6148",
"G. c #B66147",
"H. c #9B7874",
"J. c #94716D",
"K. c #A5776F",
"L. c #A07771",
"P. c #A37B74",
"I. c #AC7D74",
"U. c #A87B78",
"Y. c #BC7B7B",
"T. c #B87B7B",
"R. c #CB5B42",
"E. c #C17D7E",
"W. c #A5817C",
"Q. c #AB847D",
"!. c #B38175",
"~. c #B48379",
"^. c #BA857C",
"/. c #C28A7D",
"(. c #B97E80",
"). c #C17F80",
"_. c #AF8882",
"`. c #B98D85",
"'. c #B88783",
"]. c #BD938B",
"[. c #BC9085",
"{. c #BBA29E",
"}. c #C48383",
"|. c #CB8382",
" X c #C48C85",
".X c #D78D89",
"XX c #C3948B",
"oX c #CA958A",
"OX c #C79387",
"+X c #D8928A",
"@X c #C49992",
"#X c #CB9B91",
"$X c #EC8E88",
"%X c #EB928B",
"&X c #E6918A",
"*X c #F1938C",
"=X c #F1998F",
"-X c #E59893",
";X c #F19894",
":X c #C6ACA8",
">X c #E3BDB4",
",X c #EEEEEE",
"<X c #FFE7E2",
"1X c #FEEAE5",
"2X c #F4EDEB",
"3X c #FFEDEB",
"4X c #F2E9E7",
"5X c #FFF2EE",
"6X c #EFEFF1",
"7X c #FFEFF0",
"8X c #F1F1F1",
"9X c #F5F5F5",
"0X c #F3F3F3",
"qX c #FFF5F2",
"wX c #FFF4F3",
"eX c #FAFAFA",
"rX c #FDFDFD",
"tX c #FCFCFC",
"yX c #FCF7F8",
/* pixels */
"rX8XeXeX8XrX2XtX9X9XeX8XrX2XrX9X9XrX,XrX8X9XeX8XrX8XeX9X9XeX8XtX0XeX9X9XrX6XrX0X9XeX8XrX8X9X9X9XrX6X",
"2XqX3X3X5X1XqX5X5X3X1XwX3XqX1X3X5X1XqX3XwX3X3XwX1XwX3X3X3X3XwX3X7X3X7X7X7XqX1X3X3X3XyX1XwX3X3XqXwXeX",
"qX>X+X*X*X&X+X.X;X*X*X;X|.-X%X%X%X%X.X.X;X$X%X;X|.-X%X$X*X&X.X.X;X$X*X;X|.-X%X=X*X&X.X+X;X$X=X.X{.2X",
"3X~.0 Y r A O & A r A r o , G r r A . 3 r y A r o , ^ r A r o > y r C r . 3 A r u r . V t r ) < J.wX",
"5X~.0 0.( 3.S S 7.3.3.7.B 2.4.4.( 7.B W 4.G ( ~ B 2.4.4.( ~ B 2.4.! 7.G B 2.2.4.~ ~ B ! 4.~ g.O W.5X",
"qX`.< V d %.' ] 2.4 z 3.] ' 2.$ m ] ] ] 2.$ D ] ' [ S - z $.' 3.' $ D ] ' ' ' O F ] ] ] S # 0.2 _.3X",
"1XXX6.~ ] d.y.s.s.z $.d.i.s.s.a &.d.a.s.t.a e.s.a.d.r.k 9.d.i.s.r.a e.d.a.a.j.5 y.a.p.s.r.d k.Q @XwX",
"qX!.. r w p w i i = i p w i i * w p w i a - i p w i i * i p w a i * i p w i i * p e w i i * Z o P.1X",
"<X/.D v.:.=.s b =. .X.X.i L =.X. .=.w O.*.X.X...i { =...=.| p { ;.| =.| w +.*.=.=.| w #.=.:.B.= P.qX",
"5XOXG b.z.=.g M x.=.c.=.p O.1.=.l.;.i O.,.l.l.=.p O.,.=.c...s +.,.=.l.=.i &.1.=.=.*.i &.=.;.B.> L.4X",
"1XU.. p = p ; w i = w i ; 5 i = w e ; 5 i = w i ; 5 5 = w i ; i i - i i ; 5 i = i i ; 5 5 * Z . Q.5X",
"qX].^ ~ F p.e.a.r.l ` d.y.e.t.a @.y.y.r.r.6 %.p.y.a.w.k @.d.9.a.e.i 9.i.y.e.w.4 -.y.y.y.w.d k.W XX3X",
"5X[.q G z &.@.9.%.5 m &.%.%.8.4 ` @.&.%.8.- ` @.%.%.] 5 M &.$.%.[ 4 O.#.%.%.[ $ $.@.&.%.] - g.0 `.5X",
"1XU.. Z p s - ; s i a s $ 5 a i i s # 5 a i p s $ 5 a i s p * 5 a i p a # 6 a i i i $ a a w U . L.5X",
"5XoX7.B.v.x.N O.M.c.x.x.s @.m.x.c.m.s 9.n.x.x.x.l #.m.,.n.,.l &.m.c.n.,.s y.m.,.x.1.i a.n.n.C.V W.2X",
"1X^.= z.R J w s } J R K ; c R K K K * N K K R J ; c } K R H w b } K K H * M K K R J = b J P b.@ P.qX",
"qX~.+ f e v g v c = p v v c c @ p h h c c @ f v g v s = f H g v s * h h h c l + h h h v s @ Y @ !.1X",
"1XXXf./ O.M.1.M.d.c +.M.u.p.d.a -.m.n.p.d.a -.m.u.p.y.l -.M.1.M.a.a -.m.u.m.s.i u.m.u.p.r.s V./ #X5X",
"qX_.# d i b n m n - s b m x m # l N m m x # s M N m x * s b n m z $ c b N m x O c b N m s + / @ Q.3X",
"3X~.% ) L b 4 a F b M b $ a F M b M # z F M M M - l F N { c - z ` m b b # x m M M N # m F F g.O P.qX",
"5XoX0.V.n.p.x ] d.1.u.p.z %.d.u.u.p.a 9.p.1.p.u.k &.d.1.u.<.l %.d.1.m.y.a r.p.n.u.y.a t.p.u.R.V H.2X",
"5XI.+ P h g = 5 v g v h * i c h h h # a c g h g * a c h v f * s g h h g + s c g h h @ s g f Y o P.5X",
"1X'.t h h | } } } e h o.} } { ; H R } } { = H o.R } L w H | } } L ; J o.} } L * K o.} } L = q.w  X5X",
"5XoX4.U L x.,.1.u.c } m.c.1.p.s *.1.1.1.p.s *.c.c.u.<.s *.x.,.1.<.s =.x.,.1.y.i ;.c.c.u.-.p B./ OX1X",
"1XU.. p w s i i s - w s i a a * i s 6 6 s * i s i a a = i s i a a * i s i a a # i s i k i @ A o Q.qX",
"qX[.V k.9.$.a x e.+.@.&.5 D 9.+.@.%.4 ] 9.&.@.$.5 _ e.@.&.O.6 _ e.@.&.@.- ] 8.&.#.@.4 [ 8.9.k.% H.4X",
"1X[.! k.y.e.z _ s.<.y.y.6 [ y.y.y.a.6 3.e.y.y.y.6 3.s.>.a.>.6 3.a.<.y.&.4 w.y.y.a.&.4 w.y.q.R.: W.qX",
"qX!.X f w s ; 5 p = w p ; 5 a ; p p ; 5 i = i p ; 5 a ; p p 4 a i ; i p 4 i i - p p ; i 5 = Z o P.4X",
"1X X! I H c.=.;.-.g K ,.=.;.y.p R =.=.;.-.p | =.;.,.-.s } c.=.,.&.p | l.=.;.-.w =.l.=.=.&.e b.A oX3X",
"1X XS j H =.| =.-.f J =...| -.w L =.=.*.-.w K =.| =.+.p K =...*.#.w | =.:.=.@.= | X.=.*.O.w b.t OX3X",
"5X!.o j e s = - s e p p * ; s i p p + 5 s i p p * 5 p w p i * i p i p i # i p i p p + i p e I . L.1X",
"1XOX4.V.u.i.x _ d.<.m.i.k [ d.u.y.d.6 8.s.u.u.s.a 8.d.u.p.y.k 8.d.u.u.y.a r.s.u.u.a.6 r.s.u.R.2 W.yX",
"qX^.: g.O.` 5 k [ { O.O.- x [ O.` O.$ x ] O.O.` - x [ ` O.{ 4 x %.` O.` $ _ ] ` O.` $ _ [ ` g.% H.2X",
"1XQ.O i w c l s a - i c s a a # s s s k k # i c s l a $ i g a l a # s l l l a O s s s l a + G O Q.qX",
"5X#X6.Y Y M.1.M.d.c #.M.n.p.d.l -.m.m.p.d.s ;.m.u.m.a.c -.M.1.M.i.s ;.m.x.p.a.a 1.m.x.m.a.s V.) oX1X",
"1X~.* f f J v J v w f J v J v * h H H v b @ h H H J v = h J H v v * h H J v c + v H J H g @ T * ^.5X",
"5X^.@ T H H ; p J H H H ; s J H H H @ c v J J v = s J H H v = c J v J H @ c J J H H @ c H H T + L.2X",
"1XOXf.C.n.m.N $.M.x.m.m.l %.M.x.x.m.a e.M.x.x.u.l &.M.x.m.1.l &.M.1.x.1.a i.p.x.m.1.a s.m.n.R.V W.5X",
"3XI.O G g s - 4 c s c s # i l c c l O a l l c s # a l s c s # a c l l s O a l l g s O k s s ) o H.qX",
"qX`.2 C s #.` $.] 5 l @.` ' ] - b O.] ` ] * m O.` [ F 4 m $.` [ _ 4 M O.O.] _ # { O.$.$.D * g., _.1X",
"1XXX5.~ O.d.y.p.y.z O.p.y.i.s.a &.y.p.a.a.a >.p.<.d.r.s &.m.y.p.e.a >.d.y.a.r.5 e.p.p.a.e.d V.Q @X5X",
"qXI.o p w f p p s * i f p p s # p f p p s + i f p s a * e f p s i * p f p s a + p p p s i + Z o !.1X",
"<X/.C v. .| s b =.| X.| w b *.X. ...; L -.| X.| i M *.| =.R i L =.| X.o.w O.*...X.| ; +.=.T B.= P.qX",
"5XOXG B.z.;.s M u.=.,.1.s $.1.;.;.u.i %.;.;.=.;.p $.u.=.1.*.s $.u.=.l.;.w 9.1.;.=.;.w 9.;.;.C.> L.2X",
"1XP.X p ; i ; ; a - ; i * 4 i - w i = 5 5 - w i - 5 5 - ; i * 5 i - i i * 4 5 * i i = 5 5 = C . P.5X",
"5X@X6.f.f.D.A.S.A.2.f.D.S.A.G.W h.D.A.A.G.W h.A.S.G.Z.Q Z.R.A.A.Z.W h.S.S.D.Z.W k.S.A.D.Z.W F.5.@X5X",
"9X_.7 X & 3 2 2 8 X & q 2 2 8   % 3 3 2 8   % V 3 9 8 X % 3 3 3 < . 2 3 3 3 1   2 2 3 2 <   E 7 Q.5X",
"wX{.(.'.T.|.Y.|.(.(.}.Y.|.Y.}.~.).).Y.}.(.'./.Y.|.Y.'.T.).).Y.}.T.'.).E.).(.'.T.).}.Y.|.T.'.}.K.:XqX",
"yXwXwXwX7XqX7XwX7XwXwX3XwX3XwXwX7XwX3XwX7XwXwX3XwX3XwX7X7XwX7XwX7XwXwX7XwX3XyXwX7XwX7XwX7XwX7X7XyX2X",
",XeX9X0XeX8XrX0XeX9X9XrX0XrX0X9XeX6XrX8XrX9X9XrX8XrX0XeXeX0XeX6XeX0X9XeX6XrX8XrX9X9XrX6XrX6X9XrX8XrX"
};
